<svg aria-hidden="true" style="position: absolute; width: 0; height: 0; overflow: hidden;" version="1.1" xmlns="http://www.w3.org/2000/svg" xmlns:xlink="http://www.w3.org/1999/xlink">
<defs>
<symbol id="icon-Arrow-btn" viewBox="0 0 40 32">
<path d="M38.996 6.808c0.225-1.036-0.432-2.059-1.468-2.284l-16.886-3.671c-1.036-0.225-2.059 0.432-2.284 1.468s0.432 2.059 1.468 2.284l15.009 3.263-3.263 15.009c-0.225 1.036 0.432 2.059 1.468 2.284s2.059-0.432 2.284-1.468l3.671-16.886zM2.318 31.055l35.84-23.040-2.076-3.23-35.84 23.040 2.076 3.23z"></path>
</symbol>
<symbol id="icon-s-css" viewBox="0 0 32 32">
<path d="M16 0c3.164 0 6.258 0.938 8.889 2.696s4.682 4.257 5.893 7.181c1.211 2.924 1.528 6.141 0.91 9.244s-2.141 5.955-4.379 8.192c-2.238 2.238-5.089 3.761-8.192 4.379s-6.321 0.301-9.244-0.91-5.422-3.262-7.181-5.893c-1.758-2.631-2.696-5.725-2.696-8.889 0-4.243 1.686-8.313 4.686-11.314s7.070-4.686 11.314-4.686z"></path>
<path fill="transparent" style="fill: var(--color1, #782bf5)" d="M26.036 6.848c-0.725-2.841-5.437-3.771-9.896-2.192-2.793 0.938-5.373 2.418-7.593 4.355-2.456 2.297-2.848 4.297-2.687 5.133 0.571 2.949 4.609 4.875 6.27 6.305v0.008c-0.489 0.241-4.073 2.057-4.914 3.909-0.885 1.957 0.141 3.36 0.821 3.549 1.021 0.246 2.093 0.166 3.066-0.229s1.798-1.084 2.36-1.971c0.464-0.719 0.754-1.536 0.848-2.387s-0.012-1.711-0.309-2.514c0.8-0.203 1.631-0.251 2.449-0.141 2.807 0.328 3.358 2.080 3.253 2.814-0.049 0.261-0.155 0.509-0.308 0.726s-0.352 0.398-0.582 0.532c-0.197 0.122-0.257 0.163-0.24 0.255 0.024 0.131 0.114 0.127 0.282 0.098 0.422-0.133 0.793-0.39 1.066-0.739s0.433-0.771 0.461-1.212c0.067-1.714-1.579-3.641-4.496-3.592-0.847-0.024-1.692 0.092-2.502 0.343-0.040-0.046-0.082-0.092-0.123-0.137-1.803-1.923-5.136-3.285-4.995-5.871 0.051-0.941 0.378-3.416 6.4-6.419 4.937-2.461 8.889-1.783 9.573-0.282 0.976 2.144-2.112 6.127-7.239 6.702-0.567 0.115-1.152 0.101-1.712-0.041s-1.082-0.408-1.525-0.78c-0.27-0.297-0.31-0.31-0.41-0.255-0.163 0.090-0.059 0.353 0 0.509 0.196 0.354 0.461 0.665 0.779 0.915s0.683 0.434 1.073 0.541c2.016 0.438 4.118 0.23 6.009-0.594 3.11-1.199 5.535-4.542 4.823-7.336zM12.82 21.329c0.227 0.782 0.215 1.615-0.033 2.391-0.027 0.081-0.056 0.161-0.088 0.24s-0.067 0.155-0.104 0.229c-0.192 0.394-0.441 0.757-0.739 1.078-0.929 1.014-2.229 1.398-2.785 1.074-0.601-0.349-0.301-1.778 0.777-2.918 0.828-0.819 1.783-1.499 2.827-2.014l0.145-0.080z"></path>
</symbol>
<symbol id="icon-html" viewBox="0 0 32 32">
<path d="M2.39 0c-0.294 0-0.513 0.24-0.487 0.533l2.479 27.811c0.026 0.293 0.279 0.597 0.563 0.676l10.521 2.921c0.283 0.079 0.747 0.079 1.031 0l10.553-2.926c0.283-0.079 0.537-0.383 0.563-0.675l2.483-27.807c0.026-0.293-0.193-0.533-0.487-0.533h-27.22zM24.817 6.378c-0.023 0.261-0.064 0.715-0.090 1.008l-0.065 0.73c-0.026 0.293-0.064 0.712-0.084 0.931s-0.038 0.398-0.042 0.398c-0.003 0-0.247 0-0.541 0h-7.461c-0.294 0-0.537 0-0.54 0s-0.246 0-0.541 0h-3.929c-0.294 0-0.513 0.24-0.487 0.533l0.229 2.562c0.026 0.293 0.288 0.533 0.582 0.533h3.605c0.294 0 0.537 0 0.541 0s0.246 0 0.54 0h6.196c0.294 0 0.749 0 1.011 0s0.457 0.214 0.433 0.475c-0.024 0.261-0.065 0.715-0.091 1.008l-0.737 8.259c-0.026 0.293-0.060 0.667-0.074 0.832s-0.258 0.363-0.542 0.442l-6.217 1.724c-0.283 0.078-0.519 0.144-0.523 0.145s-0.24-0.063-0.523-0.141l-6.224-1.727c-0.283-0.079-0.537-0.383-0.563-0.676l-0.401-4.497c-0.026-0.293 0.193-0.533 0.487-0.533h0.568c0.294 0 0.775 0 1.069 0h0.847c0.294 0 0.556 0.24 0.582 0.533l0.157 1.76c0.026 0.293 0.28 0.595 0.564 0.672l2.911 0.786c0.284 0.077 0.517 0.139 0.518 0.139s0.235-0.063 0.518-0.14l2.916-0.788c0.284-0.077 0.538-0.379 0.564-0.672l0.316-3.527c0.026-0.293-0.193-0.533-0.487-0.533h-3.28c-0.294 0-0.537 0-0.54 0s-0.246 0-0.541 0h-6.843c-0.294 0-0.556-0.24-0.582-0.533l-0.776-8.695c-0.026-0.293-0.067-0.746-0.090-1.008s0.198-0.475 0.492-0.475h7.799c0.294 0 0.537 0 0.541 0s0.246 0 0.54 0h7.79c0.294 0 0.516 0.214 0.492 0.475z"></path>
</symbol>
<symbol id="icon-css" viewBox="0 0 28 32">
<path d="M0 0l2.579 28.89 11.171 3.11 11.171-3.11 2.579-28.89h-27.5zM21.963 9.363l-8.244 3.645h7.954l-0.911 10.819-7.011 2.117-0.011-0.005v0.005l-7.050-2.157-0.453-5.448h3.497l0.226 2.822 3.747 0.978 0.032-0.010v0.005l3.877-1.13 0.265-4.547-11.875-0.038-0.264-3.411 8.462-3.645h-8.764l-0.419-3.488h17.281l-0.341 3.488z"></path>
</symbol>
<symbol id="icon-Arrow-L" viewBox="0 0 204 32">
<path d="M202 18c1.104 0 2-0.895 2-2s-0.896-2-2-2v4zM0.586 14.586c-0.781 0.781-0.781 2.047 0 2.828l12.728 12.728c0.781 0.781 2.047 0.781 2.828 0s0.781-2.047 0-2.828l-11.314-11.314 11.314-11.314c0.781-0.781 0.781-2.047 0-2.828s-2.047-0.781-2.828 0l-12.728 12.728zM202 14h-200v4h200v-4z"></path>
</symbol>
<symbol id="icon-Arrow-R" viewBox="0 0 204 32">
<path d="M2 14c-1.105 0-2 0.895-2 2s0.895 2 2 2v-4zM203.414 17.414c0.782-0.781 0.782-2.047 0-2.828l-12.728-12.728c-0.781-0.781-2.047-0.781-2.828 0s-0.781 2.047 0 2.828l11.314 11.314-11.314 11.314c-0.781 0.781-0.781 2.047 0 2.828s2.047 0.781 2.828 0l12.728-12.728zM2 18h200v-4h-200v4z"></path>
</symbol>
<symbol id="icon-wordpress" viewBox="0 0 32 32">
<path d="M2.274 16c0 5.433 3.157 10.128 7.736 12.353l-6.547-17.939c-0.785 1.758-1.19 3.661-1.188 5.586zM25.266 15.307c0-1.696-0.609-2.871-1.132-3.785-0.696-1.131-1.348-2.088-1.348-3.219 0-1.262 0.957-2.436 2.305-2.436 0.061 0 0.118 0.008 0.178 0.011-2.442-2.237-5.695-3.603-9.269-3.603-4.795 0-9.014 2.46-11.468 6.187 0.322 0.010 0.625 0.016 0.883 0.016 1.436 0 3.658-0.174 3.658-0.174 0.74-0.044 0.827 1.043 0.088 1.131 0 0-0.744 0.088-1.571 0.131l4.999 14.868 3.004-9.009-2.139-5.859c-0.739-0.043-1.439-0.131-1.439-0.131-0.74-0.043-0.653-1.174 0.087-1.131 0 0 2.267 0.174 3.615 0.174 1.436 0 3.658-0.174 3.658-0.174 0.74-0.044 0.827 1.043 0.088 1.131 0 0-0.745 0.087-1.571 0.131l4.96 14.755 1.369-4.575c0.593-1.898 1.045-3.262 1.045-4.437l-0-0zM16.241 17.2l-4.118 11.967c1.259 0.371 2.565 0.559 3.877 0.559 1.598 0 3.131-0.276 4.558-0.778-0.038-0.060-0.071-0.123-0.098-0.189l-4.22-11.559zM28.044 9.414c0.062 0.468 0.093 0.939 0.092 1.411 0 1.393-0.26 2.959-1.044 4.916l-4.193 12.122c4.081-2.38 6.825-6.8 6.825-11.864 0-2.386-0.609-4.63-1.681-6.586zM16 0c-8.822 0-16 7.177-16 16 0 8.823 7.178 16 16 16s16.001-7.177 16.001-16c-0-8.822-7.179-16-16.001-16zM16 31.267c-8.418 0-15.267-6.849-15.267-15.267s6.849-15.266 15.267-15.266c8.417 0 15.266 6.848 15.266 15.266s-6.848 15.267-15.266 15.267z"></path>
</symbol>
<symbol id="icon-java-script" viewBox="0 0 29 32">
<path d="M14.248 32c-0.43 0-0.858-0.112-1.235-0.329l-3.932-2.316c-0.587-0.327-0.3-0.443-0.107-0.511 0.783-0.271 0.941-0.333 1.778-0.805 0.087-0.049 0.202-0.031 0.292 0.023l3.021 1.785c0.056 0.030 0.119 0.045 0.182 0.045s0.126-0.015 0.182-0.045l11.777-6.768c0.055-0.033 0.1-0.079 0.132-0.135s0.048-0.118 0.048-0.182v-13.533c-0-0.065-0.017-0.129-0.049-0.185s-0.078-0.104-0.134-0.137l-11.772-6.763c-0.055-0.031-0.118-0.047-0.181-0.047s-0.126 0.016-0.181 0.047l-11.769 6.764c-0.056 0.033-0.103 0.080-0.135 0.136s-0.050 0.12-0.051 0.185v13.533c0 0.064 0.018 0.127 0.050 0.182s0.080 0.1 0.136 0.131l3.226 1.856c1.75 0.872 2.823-0.155 2.823-1.187v-13.361c0-0.189 0.153-0.337 0.343-0.337h1.493c0.186 0 0.341 0.149 0.341 0.337v13.361c0 2.327-1.272 3.66-3.487 3.66-0.68 0-1.217 0-2.713-0.735l-3.091-1.769c-0.376-0.218-0.687-0.53-0.904-0.905s-0.331-0.801-0.331-1.233v-13.533c0-0.879 0.473-1.7 1.235-2.137l11.777-6.776c0.379-0.207 0.805-0.315 1.237-0.315s0.858 0.108 1.237 0.315l11.776 6.776c0.763 0.439 1.237 1.259 1.237 2.137v13.533c-0.001 0.433-0.115 0.858-0.332 1.233s-0.529 0.687-0.905 0.905l-11.776 6.771c-0.375 0.217-0.802 0.329-1.239 0.329zM23.757 18.657c0-2.533-1.719-3.208-5.339-3.684-3.657-0.481-4.029-0.731-4.029-1.583 0-0.704 0.315-1.644 3.024-1.644 2.42 0 3.312 0.519 3.678 2.143 0.017 0.075 0.059 0.142 0.119 0.19s0.135 0.075 0.212 0.075h1.528c0.047-0 0.093-0.010 0.136-0.029s0.081-0.046 0.113-0.079c0.032-0.035 0.057-0.076 0.073-0.121s0.021-0.093 0.017-0.14c-0.237-2.797-2.104-4.101-5.876-4.101-3.358 0-5.362 1.411-5.362 3.777 0 2.567 1.993 3.276 5.216 3.593 3.857 0.376 4.155 0.937 4.155 1.692 0 1.311-1.057 1.869-3.538 1.869-3.116 0-3.802-0.779-4.032-2.323-0.013-0.080-0.054-0.153-0.116-0.206s-0.141-0.081-0.223-0.081h-1.523c-0.045-0-0.089 0.008-0.13 0.025s-0.079 0.042-0.111 0.073c-0.032 0.031-0.057 0.069-0.074 0.11s-0.026 0.085-0.026 0.13c0 1.976 1.079 4.331 6.234 4.331 3.733 0.001 5.873-1.461 5.873-4.017z"></path>
</symbol>
<symbol id="icon-Git" viewBox="0 0 32 32">
<path d="M0.949 13.742l9.255-9.271 2.706 2.722c-0.384 1.361 0.24 2.85 1.489 3.571v8.871c-0.961 0.544-1.601 1.585-1.601 2.77 0 0.849 0.337 1.664 0.938 2.264s1.415 0.938 2.264 0.938 1.664-0.337 2.264-0.938c0.601-0.601 0.938-1.415 0.938-2.264 0-1.185-0.64-2.226-1.601-2.77v-7.782l3.314 3.346c-0.112 0.24-0.112 0.512-0.112 0.801 0 0.849 0.337 1.664 0.938 2.264s1.415 0.938 2.264 0.938 1.664-0.337 2.264-0.938c0.601-0.601 0.938-1.415 0.938-2.264s-0.337-1.664-0.938-2.264c-0.601-0.601-1.415-0.938-2.264-0.938-0.288 0-0.56 0-0.801 0.112l-4.115-4.115c0.199-0.742 0.122-1.53-0.217-2.219s-0.916-1.232-1.624-1.527c-0.689-0.256-1.409-0.32-2.050-0.144l-2.722-2.706 1.265-1.249c1.249-1.265 3.266-1.265 4.515 0l12.794 12.794c1.265 1.249 1.265 3.266 0 4.515l-12.794 12.794c-1.249 1.265-3.266 1.265-4.515 0l-12.794-12.794c-1.265-1.249-1.265-3.266 0-4.515z"></path>
</symbol>
<symbol id="icon-gulp" viewBox="0 0 15 32">
<path d="M12.379 24.443l-0.884 1.538-0.288 5.013c0 0.556-1.774 1.006-3.955 1.006s-3.955-0.45-3.955-1.006l-0.364-4.963-0.934-1.588c2.582 1.081 7.897 1.044 10.379 0zM0.094 8.611l0.852 7.844c0.37-1.25 1.304-2.938 2.507-3.45 0.395-0.169 0.796-0.169 1.172 0.056 0.326 0.188 0.602 0.581 0.633 0.738 0.075 0.406-0.125 0.569-0.282 0.569-0.188 0-0.332-0.288-0.426-0.456-0.257-0.456-0.646-0.475-1.059-0.175-0.432 0.313-0.809 0.838-1.072 1.294-0.32 0.55-0.589 1.156-0.752 1.763-0.094 0.35-0.182 0.913-0.038 1.244 0.063 0.137 0.157 0.225 0.307 0.225 0.313 0 0.771-0.413 0.99-0.631 0.282-0.281 0.646-0.719 0.783-1l0.326-0.969c0.163-0.425 0.62-0.35 0.62 0 0 0.638-0.232 0.85-0.627 2.169-0.364 1.219-0.476 1.613-0.476 1.613-0.044 0.175-0.213 0.469-0.395 0.469-0.075 0-0.132-0.025-0.163-0.075-0.063-0.087-0.056-0.331-0.050-0.394 0.013-0.2 0.395-1.388 0.458-1.575-0.125 0.137-0.257 0.275-0.401 0.413-0.338 0.319-0.884 0.738-1.348 0.738-0.213 0-0.351-0.056-0.483-0.15l0.476 4.975c0.125 0.313 2.457 1.069 5.528 1.069 3.077 0 5.409-0.763 5.528-1.069l0.683-5.913c-0.357 0.325-0.771 0.725-1.228 0.925-0.338 0.144-1.091 0.238-1.091-0.356 0-0.325 0.57-0.925 0.902-1.344 0.088-0.106 0.295-0.369 0.295-0.506 0-0.181-0.376-0.137-0.733 0.156-0.201 0.169-0.389 0.394-0.545 0.606-0.27 0.375-0.414 0.7-0.533 0.969-0.389 0.888-0.257 0.538-0.57 1.375-0.313 0.831-0.263 0.738-0.326 0.875-0.056 0.119-0.138 0.219-0.251 0.281-0.119 0.063-0.282 0.056-0.382-0.019-0.056-0.038-0.082-0.119-0.082-0.231 0-0.056 0.006-0.113 0.019-0.169 0.094-0.381 0.489-1.131 0.94-2.144 0.1-0.231 0.063-0.163 0.050-0.144-0.389 0.375-0.683 0.556-0.903 0.656-0.364 0.163-0.815 0.163-0.909-0.256-0.006-0.025-0.006-0.050-0.013-0.075-0.74 0.575-1.523 0.731-1.254-0.506-0.288 0.513-0.79 0.931-1.404 0.931-0.257 0-0.445-0.087-0.539-0.319-0.144-0.344 0.081-0.931 0.288-1.488 0.107-0.281 0.251-0.619 0.445-1.013 0.1-0.213 0.263-0.338 0.476-0.281 0.038 0.012 0.069 0.025 0.1 0.044 0.163 0.113 0.1 0.281 0.019 0.45-0.238 0.469-0.445 0.813-0.583 1.3-0.056 0.206-0.125 0.563 0.094 0.563 0.15 0 0.295-0.050 0.432-0.15 0.288-0.212 0.52-0.531 0.696-0.844 0.125-0.225 0.276-0.519 0.351-0.769 0.031-0.106 0.069-0.206 0.113-0.3 0.069-0.156 0.163-0.319 0.326-0.319 0.082 0 0.15 0.031 0.201 0.094 0.107 0.138 0.081 0.281 0.025 0.431-0.125 0.35-0.295 0.663-0.432 1.044-0.082 0.219-0.169 0.5-0.169 0.731 0 0.213 0.232 0.163 0.426 0.075 0.15-0.069 0.301-0.175 0.426-0.281 0.075-0.306 0.056-0.238 1.655-4.263 0.081-0.206 0.232-0.294 0.382-0.294 0.075 0 0.138 0.025 0.201 0.069 0.107 0.081 0.107 0.256 0.063 0.388-0.044 0.119-0.038 0.081-0.282 0.656-0.326 0.756-0.539 1.3-0.827 1.994-0.119 0.288-0.483 1.181-0.545 1.394-0.038 0.137-0.082 0.363 0.063 0.363 0.338 0 1.21-0.819 1.448-1.063 0.012-0.019 0.031-0.025 0.056-0.038 0.038-0.119 0.075-0.231 0.107-0.344 0.088-0.238 0.169-0.513 0.332-0.706 0.050-0.063 0.107-0.1 0.169-0.1 0.175 0 0.263 0.075 0.263 0.25 0 0.069-0.044 0.319-0.069 0.387 0.088-0.094 0.182-0.188 0.282-0.281 0.94-0.869 1.611-0.425 1.611 0.012 0 0.463-0.558 1.106-0.865 1.463-0.1 0.119-0.307 0.337-0.313 0.4 0 0.081 0.056 0.113 0.138 0.113 0.125 0 0.401-0.219 0.501-0.294 0.313-0.244 0.74-0.619 1.040-0.881l0.928-8.551c-1.912 1.069-12.385 1.075-14.309 0.012zM14.491 8.080c0 1.313-14.491 1.313-14.491 0 0-0.55 3.247-0.994 7.245-0.994 0.564 0 1.116 0.006 1.648 0.025l0.79-3.044 3.842-4.032c0.088-0.087 0.364-0.013 0.62 0.219s0.414 0.494 0.332 0.581l-0.006 0.006-3.591 3.781-0.627 2.544c2.501 0.163 4.237 0.506 4.237 0.913zM10.141 8.367c0-0.050-0.056-0.094-0.157-0.131l-0.012 0.050c0 0.081-0.313 0.15-0.696 0.15s-0.696-0.069-0.696-0.15c0-0.006 0-0.012 0.006-0.019l0.012-0.044c-0.113 0.037-0.188 0.088-0.188 0.144 0 0.131 0.389 0.231 0.859 0.231 0.483 0.006 0.871-0.1 0.871-0.231z"></path>
</symbol>
<symbol id="icon-Vector-3" viewBox="0 0 32 32">
<path d="M31.467 19.378v11.556h-6.63v-10.782c0-2.709-0.959-4.557-3.358-4.557-1.832 0-2.923 1.246-3.402 2.451-0.175 0.431-0.22 1.030-0.22 1.633v11.255h-6.633c0 0 0.090-18.26 0-20.153h6.633v2.856l-0.043 0.066h0.043v-0.066c0.88-1.37 2.453-3.329 5.976-3.329 4.363 0 7.635 2.881 7.635 9.070zM4.285 1.067c-2.267 0-3.752 1.503-3.752 3.481 0 1.934 1.441 3.483 3.665 3.483h0.043c2.314 0 3.751-1.549 3.751-3.483-0.040-1.978-1.437-3.481-3.707-3.481zM0.927 30.933h6.63v-20.153h-6.63v20.153z"></path>
</symbol>
<symbol id="icon-behance" viewBox="0 0 32 32">
<path fill="#f4f4f4" style="fill: var(--color1, #f4f4f4)" d="M32 16c0 8.837-7.163 16-16 16s-16-7.163-16-16c0-8.837 7.163-16 16-16s16 7.163 16 16z"></path>
<path d="M14.746 15.304c0.362-0.641 0.595-1.428 0.672-2.265s-0.004-1.692-0.235-2.461c-0.231-0.769-0.602-1.421-1.068-1.878s-1.009-0.7-1.563-0.7h-3.724c-0.22 0-0.43 0.133-0.585 0.37s-0.242 0.558-0.242 0.893v13.474c0 0.335 0.087 0.656 0.242 0.893s0.366 0.37 0.585 0.37h4c0.664-0.001 1.311-0.319 1.85-0.911s0.943-1.426 1.155-2.386c0.212-0.96 0.221-1.998 0.026-2.966s-0.584-1.819-1.112-2.433zM9.655 10.526h2.896c0.329 0 0.645 0.2 0.878 0.555s0.364 0.837 0.364 1.34c0 0.503-0.131 0.985-0.364 1.34s-0.549 0.555-0.878 0.555h-2.896v-3.789zM12.828 21.474h-3.172v-4.632h3.172c0.402 0 0.788 0.244 1.073 0.678s0.444 1.023 0.444 1.638-0.16 1.203-0.444 1.638c-0.284 0.434-0.67 0.678-1.073 0.678zM17.379 10.526c0-0.335 0.087-0.656 0.242-0.893s0.366-0.37 0.585-0.37h4.414c0.219 0 0.43 0.133 0.585 0.37s0.242 0.558 0.242 0.893c0 0.335-0.087 0.656-0.242 0.893s-0.366 0.37-0.585 0.37h-4.414c-0.22 0-0.43-0.133-0.585-0.37s-0.242-0.558-0.242-0.893zM20.414 13.053c-0.951 0-1.863 0.577-2.536 1.603s-1.050 2.419-1.050 3.87 0.378 2.844 1.050 3.87c0.672 1.026 1.585 1.603 2.536 1.603 0.542 0.002 1.078-0.185 1.566-0.548 0.1-0.070 0.19-0.17 0.264-0.294s0.132-0.269 0.169-0.428c0.037-0.158 0.053-0.326 0.047-0.494s-0.034-0.332-0.082-0.484c-0.048-0.151-0.116-0.286-0.198-0.397s-0.179-0.195-0.284-0.249c-0.104-0.053-0.215-0.074-0.325-0.061s-0.217 0.059-0.315 0.136c-0.262 0.195-0.55 0.295-0.842 0.294-0.365-0.001-0.723-0.159-1.032-0.457s-0.556-0.724-0.713-1.227h4.503c0.22 0 0.43-0.133 0.585-0.37s0.242-0.558 0.242-0.893c-0.001-1.451-0.379-2.842-1.052-3.869s-1.584-1.603-2.535-1.605zM18.669 17.263c0.157-0.504 0.404-0.93 0.713-1.228s0.667-0.457 1.032-0.457c0.365 0 0.723 0.158 1.032 0.457s0.556 0.724 0.712 1.228h-3.49z"></path>
</symbol>
<symbol id="icon-Vector-4" viewBox="0 0 32 32">
<path d="M16 0c-8.84 0-16 7.341-16 16.405-0.002 3.444 1.054 6.801 3.018 9.595s4.736 4.883 7.923 5.97c0.8 0.143 1.099-0.349 1.099-0.781 0-0.389-0.021-1.68-0.021-3.055-4.019 0.76-5.059-1.004-5.379-1.928-0.181-0.472-0.96-1.928-1.64-2.318-0.56-0.307-1.36-1.066-0.021-1.086 1.261-0.021 2.16 1.189 2.461 1.682 1.44 2.48 3.741 1.783 4.659 1.353 0.141-1.066 0.56-1.783 1.021-2.193-3.56-0.41-7.28-1.826-7.28-8.101 0-1.785 0.619-3.26 1.64-4.41-0.16-0.41-0.72-2.092 0.16-4.347 0 0 1.339-0.43 4.4 1.683 1.302-0.371 2.648-0.557 4-0.554 1.36 0 2.72 0.184 4 0.553 3.059-2.133 4.4-1.68 4.4-1.68 0.88 2.256 0.32 3.937 0.16 4.347 1.019 1.148 1.64 2.604 1.64 4.408 0 6.296-3.739 7.691-7.299 8.101 0.579 0.512 1.080 1.496 1.080 3.035 0 2.193-0.021 3.957-0.021 4.511 0 0.43 0.301 0.942 1.101 0.778 3.176-1.099 5.936-3.192 7.891-5.984s3.007-6.142 3.008-9.579c0-9.064-7.16-16.405-16-16.405z"></path>
</symbol>
<symbol id="icon-Group-4" viewBox="0 0 32 32">
<path stroke-linejoin="miter" stroke-linecap="butt" stroke-miterlimit="4" stroke-width="3.4286" d="M9.143 1.714h13.714c4.103 0 7.429 3.326 7.429 7.429v13.714c0 4.103-3.326 7.429-7.429 7.429h-13.714c-4.103 0-7.429-3.326-7.429-7.429v-13.714c0-4.103 3.326-7.429 7.429-7.429z"></path>
<path stroke-linejoin="miter" stroke-linecap="butt" stroke-miterlimit="4" stroke-width="3.4286" d="M22.607 16c0 3.648-2.957 6.606-6.606 6.606s-6.606-2.957-6.606-6.606c0-3.648 2.957-6.606 6.606-6.606s6.606 2.957 6.606 6.606z"></path>
<path d="M26.881 7.040c0 1.060-0.86 1.92-1.92 1.92s-1.92-0.86-1.92-1.92c0-1.060 0.86-1.92 1.92-1.92s1.92 0.86 1.92 1.92z"></path>
</symbol>
<symbol id="icon-Vector-2" viewBox="0 0 32 32">
<path stroke-linejoin="round" stroke-linecap="round" stroke-miterlimit="4" stroke-width="3" d="M30 2l-28 14 10.316 1.867M30 2l-3.684 28-14-12.133M30 2l-17.684 15.867M12.316 17.867v10.267l4.788-6.117"></path>
</symbol>
</defs>
</svg>
